<svg width="52" height="41" viewBox="0 0 52 41" fill="none" xmlns="http://www.w3.org/2000/svg">
<path fill-rule="evenodd" clip-rule="evenodd" d="M12.1224 1.24504C12.4896 0.249217 13.5722 -0.251851 14.5404 0.125876L50.7895 14.2679C51.7577 14.6456 52.2449 15.7591 51.8776 16.755C51.5104 17.7508 50.4278 18.2519 49.4596 17.8741L13.2105 3.73209C12.2423 3.35436 11.7551 2.24087 12.1224 1.24504Z" fill="black"/>
<path fill-rule="evenodd" clip-rule="evenodd" d="M2.02826 18.5207C2.20784 17.5231 3.19397 16.8544 4.23084 17.0272C8.55888 17.7484 12.9198 18.4317 17.2945 19.1172C27.3668 20.6955 37.5123 22.2853 47.4991 24.3751C48.5274 24.5902 49.1797 25.5667 48.9561 26.556C48.7324 27.5453 47.7176 28.1729 46.6893 27.9577C36.804 25.8892 26.8214 24.3252 16.7962 22.7544C12.3976 22.0652 7.9909 21.3748 3.58053 20.6398C2.54366 20.4671 1.84868 19.5183 2.02826 18.5207Z" fill="black"/>
<path fill-rule="evenodd" clip-rule="evenodd" d="M48.9993 36.7525C49.0275 37.7462 48.1847 38.5731 47.1168 38.5993C36.4053 38.8625 25.7258 39.5342 15.005 40.2085C10.6956 40.4796 6.37953 40.7511 2.05198 40.9966C0.985723 41.0571 0.0686547 40.3018 0.00364763 39.3095C-0.0613594 38.3172 0.750311 37.4638 1.81656 37.4033C6.08807 37.161 10.3715 36.8916 14.663 36.6216C25.4153 35.9454 36.2188 35.2658 47.0147 35.0006C48.0826 34.9744 48.9711 35.7587 48.9993 36.7525Z" fill="black"/>
</svg>
