<svg width="36" height="53" viewBox="0 0 36 53" fill="none" xmlns="http://www.w3.org/2000/svg">
<path fill-rule="evenodd" clip-rule="evenodd" d="M33.0247 0.394026C33.9549 1.06587 34.1635 2.36338 33.4906 3.29211L3.76316 44.3212C3.09026 45.2499 1.79069 45.4581 0.860505 44.7863C-0.0696835 44.1145 -0.278255 42.8169 0.394647 41.8882L30.1221 0.85915C30.795 -0.0695737 32.0946 -0.277817 33.0247 0.394026Z" fill="black"/>
<path fill-rule="evenodd" clip-rule="evenodd" d="M34.9838 26.6469C35.8129 27.444 35.8388 28.7621 35.0415 29.591L13.1414 52.3611C12.3441 53.19 11.0257 53.2159 10.1965 52.4188C9.3674 51.6218 9.34155 50.3037 10.1388 49.4748L32.0389 26.7047C32.8362 25.8758 34.1546 25.8499 34.9838 26.6469Z" fill="black"/>
</svg>
